<svg width="60" height="60" viewBox="0 0 60 60" fill="none" xmlns="http://www.w3.org/2000/svg">
<g clip-path="url(#clip0_13_900)">
<path d="M12.1562 28.6263C11.3079 27.7781 10.7833 26.6063 10.7833 25.3119C10.7833 24.3514 11.0721 23.4585 11.5677 22.715L20.9425 8.65284C21.7827 7.39251 23.2172 6.56226 24.8455 6.56226H16.4066C14.7782 6.56226 13.3439 7.39251 12.5037 8.65284L3.12885 22.715C1.90568 24.5497 2.12036 27.0293 3.71736 28.6263L26.6856 52.0633C28.5148 53.8926 31.4823 53.8956 33.3145 52.0633L34.2195 51.1399L12.1562 28.6263Z" fill="#D7FBF9"/>
<path d="M25.0282 53.7205C25.0226 53.715 25.0171 53.7094 25.0116 53.7037L2.05083 30.2743C-0.37654 27.8382 -0.625675 24.1214 1.17886 21.4149L10.5537 7.35274C11.862 5.39012 14.05 4.21851 16.4066 4.21851H43.5935C45.9501 4.21851 48.1381 5.39024 49.4464 7.35274L58.8212 21.4149C60.626 24.1219 60.3762 27.8387 57.9493 30.2743L34.9884 53.7037C34.9829 53.7094 34.9774 53.715 34.9717 53.7205C32.2242 56.4682 27.7762 56.4687 25.0282 53.7205ZM28.3503 50.4134C29.2639 51.3193 30.7357 51.3198 31.6498 50.4134L54.6089 26.9859C54.6144 26.9803 54.62 26.9747 54.6255 26.969C55.4471 26.1476 55.5129 24.9026 54.9212 24.0152L45.5464 9.95295C45.1094 9.2973 44.3792 8.9059 43.5935 8.9059H16.4066C15.6209 8.9059 14.8907 9.2973 14.4537 9.95295L5.07889 24.0152C4.48722 24.9028 4.55308 26.1477 5.37455 26.9691C5.38006 26.9747 5.38568 26.9804 5.39119 26.986L28.3503 50.4134Z" fill="#00AEA5"/>
<path d="M46.8086 22.9681H35.6582L41.032 17.5942C41.9474 16.6789 41.9474 15.195 41.032 14.2798C40.1167 13.3645 38.6327 13.3644 37.7175 14.2798L30 21.9973L22.2826 14.2798C21.3672 13.3644 19.8832 13.3644 18.968 14.2798C18.0528 15.1951 18.0527 16.679 18.968 17.5942L24.3419 22.9681H13.1915C11.8971 22.9681 10.8478 24.0174 10.8478 25.3118C10.8478 26.6062 11.8971 27.6555 13.1915 27.6555H46.8087C48.1031 27.6555 49.1524 26.6062 49.1524 25.3118C49.1524 24.0174 48.103 22.9681 46.8086 22.9681Z" fill="#40C8FF"/>
</g>
<defs>
<clipPath id="clip0_13_900">
<rect width="60" height="60" fill="white"/>
</clipPath>
</defs>
</svg>
