<svg width="864" height="811" viewBox="0 0 864 811" fill="none" xmlns="http://www.w3.org/2000/svg">
<path fill-rule="evenodd" clip-rule="evenodd" d="M211 260.21V487.693L659 252.79V25.3069L211 260.21ZM209 259V491L661 254V22L209 259Z" fill="#DDF0F8"/>
<path fill-rule="evenodd" clip-rule="evenodd" d="M2 487.21V714.693L450 479.79V252.307L2 487.21ZM0 486V718L452 481V249L0 486Z" fill="#DDF0F8"/>
<path fill-rule="evenodd" clip-rule="evenodd" d="M414 238.21V472.693L862 237.79V3.30692L414 238.21ZM412 237V476L864 239V0L412 237Z" fill="#DDF0F8"/>
<path fill-rule="evenodd" clip-rule="evenodd" d="M110 573.21V807.693L558 572.79V338.307L110 573.21ZM108 572V811L560 574V335L108 572Z" fill="#DDF0F8"/>
</svg>
