<svg width="60" height="60" viewBox="0 0 60 60" fill="none" xmlns="http://www.w3.org/2000/svg">
<path d="M30 7.03125C29.0395 7.03125 28.1467 7.32012 27.403 7.8157L13.3405 17.1907C12.0803 18.0309 11.25 19.4653 11.25 21.0938V52.9688C11.25 55.5575 13.3487 57.6562 15.9375 57.6562H18.3877C18.3266 57.3546 18.2944 57.0425 18.2944 56.7229V24.8479C18.2944 23.2195 19.1246 21.785 20.385 20.9448L30 14.5349V7.03125Z" fill="#D7FBF9"/>
<path d="M26.9698 45.7197L36.3448 36.3447C37.2602 35.4294 37.2602 33.9455 36.3448 33.0302C35.4294 32.115 33.9454 32.1149 33.0301 33.0302L23.6551 42.4052C22.7398 43.3206 22.7398 44.8045 23.6551 45.7197C24.5705 46.635 26.0544 46.6351 26.9698 45.7197Z" fill="#40C8FF"/>
<path d="M25.3125 37.0312C26.6069 37.0312 27.6562 35.9819 27.6562 34.6875C27.6562 33.3931 26.6069 32.3438 25.3125 32.3438C24.0181 32.3438 22.9688 33.3931 22.9688 34.6875C22.9688 35.9819 24.0181 37.0312 25.3125 37.0312Z" fill="#40C8FF"/>
<path d="M34.6875 46.4062C35.9819 46.4062 37.0312 45.3569 37.0312 44.0625C37.0312 42.7681 35.9819 41.7188 34.6875 41.7188C33.3931 41.7188 32.3438 42.7681 32.3438 44.0625C32.3438 45.3569 33.3931 46.4062 34.6875 46.4062Z" fill="#40C8FF"/>
<path d="M27.6562 4.83L12.0404 15.2406C10.0779 16.5491 8.90625 18.7371 8.90625 21.0938V52.9688C8.90625 56.8458 12.0605 60 15.9375 60H44.0625C47.9395 60 51.0938 56.8458 51.0938 52.9688V21.0938C51.0938 18.7371 49.9221 16.549 47.9595 15.2406L40.6751 10.3843C39.5984 9.66633 38.143 9.9573 37.425 11.0344C36.707 12.1114 36.998 13.5666 38.075 14.2846L45.3594 19.1408C46.0148 19.5778 46.4062 20.3079 46.4062 21.0938V52.9688C46.4062 54.2611 45.3548 55.3125 44.0625 55.3125H15.9375C14.6452 55.3125 13.5938 54.2611 13.5938 52.9688V21.0938C13.5938 20.308 13.9852 19.5779 14.6406 19.1408L27.6562 10.4638V18.75H25.3125C24.018 18.75 22.9688 19.7993 22.9688 21.0938C22.9688 22.3882 24.018 23.4375 25.3125 23.4375H34.6875C35.982 23.4375 37.0312 22.3882 37.0312 21.0938C37.0312 19.7993 35.982 18.75 34.6875 18.75H32.3438V6.09984C32.3438 6.09738 32.3438 6.09504 32.3438 6.09258V2.34375C32.3438 1.0493 31.2945 0 30 0C28.7055 0 27.6562 1.0493 27.6562 2.34375V4.83Z" fill="#00AEA5"/>
</svg>
