<svg width="21" height="21" viewBox="0 0 21 21" fill="none" xmlns="http://www.w3.org/2000/svg">
<path d="M19.2022 2.41909C18.8178 2.10031 18.2894 2.01828 17.8264 2.20547L2.14908 8.53469C1.45945 8.81854 1.13052 9.60772 1.41437 10.2973C1.56118 10.6539 1.85342 10.9307 2.21743 11.058L5.59951 12.2338L7.4324 18.2938C7.43608 18.3062 7.44741 18.3137 7.45216 18.3256C7.47112 18.3739 7.49884 18.4184 7.53382 18.4567C7.54685 18.4722 7.56105 18.4866 7.57622 18.5C7.62188 18.5379 7.67492 18.5659 7.73195 18.5823C7.74066 18.5849 7.74648 18.5926 7.75534 18.5946L7.76047 18.5944L7.76303 18.5955C7.79225 18.602 7.82205 18.6051 7.8519 18.6049C7.89094 18.6035 7.92966 18.5968 7.96683 18.5849C7.97404 18.5829 7.9813 18.5834 7.98835 18.5811C8.05185 18.5587 8.10921 18.5219 8.15594 18.4735C8.16139 18.4681 8.16967 18.4671 8.1749 18.4613L10.8119 15.5518L14.6588 18.5305C14.8925 18.7133 15.1807 18.8126 15.4774 18.8125C16.1191 18.8124 16.673 18.3629 16.8053 17.735L19.6602 3.71963C19.7591 3.23481 19.583 2.73493 19.2022 2.41909ZM8.38943 13.3831L7.77062 16.3903L6.48012 12.1222L12.8806 8.78928L8.50821 13.1618C8.44775 13.2223 8.40647 13.2992 8.38943 13.3831ZM15.9483 17.559C15.9147 17.7201 15.7998 17.8521 15.6449 17.9076C15.4936 17.9658 15.3227 17.9399 15.1955 17.8393L11.0272 14.6118C10.8468 14.4721 10.5892 14.4948 10.4359 14.664L8.60225 16.6871L9.22 13.6881L15.5099 7.39736C15.6809 7.22673 15.6811 6.94987 15.5105 6.77898C15.3755 6.6437 15.1684 6.61176 14.9989 6.7001L5.931 11.4222L2.50369 10.2309C2.31688 10.1694 2.18982 9.99598 2.18753 9.79934C2.1785 9.60131 2.29573 9.41925 2.47976 9.3456L18.1546 3.01724C18.3183 2.94775 18.5073 2.97686 18.6425 3.09243C18.7771 3.20106 18.8389 3.37628 18.8023 3.54531L15.9483 17.559Z" fill="#00AEA5"/>
</svg>
